<?xml version="1.0" encoding="UTF-8" standalone="no"?>
<!-- Created with Inkscape (http://www.inkscape.org/) -->

<svg
   width="34.805595mm"
   height="34.658649mm"
   viewBox="0 0 34.805595 34.658649"
   version="1.1"
   id="svg5"
   xml:space="preserve"
   inkscape:version="1.2.1 (9c6d41e410, 2022-07-14)"
   sodipodi:docname="drawing.svg"
   xmlns:inkscape="http://www.inkscape.org/namespaces/inkscape"
   xmlns:sodipodi="http://sodipodi.sourceforge.net/DTD/sodipodi-0.dtd"
   xmlns="http://www.w3.org/2000/svg"
   xmlns:svg="http://www.w3.org/2000/svg"><sodipodi:namedview
     id="namedview7"
     pagecolor="#ffffff"
     bordercolor="#000000"
     borderopacity="0.25"
     inkscape:showpageshadow="2"
     inkscape:pageopacity="0.0"
     inkscape:pagecheckerboard="0"
     inkscape:deskcolor="#d1d1d1"
     inkscape:document-units="mm"
     showgrid="false"
     inkscape:zoom="1.0412648"
     inkscape:cx="411.51875"
     inkscape:cy="371.18319"
     inkscape:window-width="1920"
     inkscape:window-height="1001"
     inkscape:window-x="-9"
     inkscape:window-y="-9"
     inkscape:window-maximized="1"
     inkscape:current-layer="layer1" /><defs
     id="defs2" /><g
     inkscape:label="Layer 1"
     inkscape:groupmode="layer"
     id="layer1"
     transform="translate(-113.90092,-48.809527)"><path
       style="opacity:1;fill:#ffffff;fill-opacity:1;stroke:none;stroke-width:0.304048;stroke-linecap:round;stroke-linejoin:miter;stroke-miterlimit:0.2;stroke-dasharray:0.304048, 0.912142;stroke-dashoffset:0;stroke-opacity:1;paint-order:stroke markers fill"
       d="m 80.92765,82.255338 c -1.726533,-3.372505 -5.285436,-9.636084 0.365538,-10.317142 3.263068,-0.393267 4.928667,-0.0694 6.373873,0.280937 2.710957,0.657179 5.522248,1.999074 8.240948,3.232528 0.682364,0.309433 5.477961,-0.632974 6.558971,0.469712 1.29734,1.323359 -2.35575,3.044991 -2.90777,3.747485 -1.003745,1.277337 3.18776,6.217358 4.05891,7.281549 1.33519,1.631053 10.17666,-0.666545 10.97227,1.029617 1.10782,2.361841 -4.4202,4.397738 -5.75983,4.595292 -1.42971,0.210838 -0.20642,5.336819 -3.22016,5.276574 -1.96806,-0.0394 0.92191,-7.99502 -4.35877,-8.534512 -2.674202,-0.273205 -7.284606,-1.025777 -12.596195,-2.231833 -0.356959,-0.08113 -0.891571,4.783269 -2.461939,2.595412"
       id="path20072"
       sodipodi:nodetypes="csssssssssssc" /><g
       id="g1284"><path
         style="opacity:1;fill:#000000;fill-opacity:1;stroke-width:0.732957;stroke-miterlimit:0.2;paint-order:stroke markers fill"
         id="path380"
         sodipodi:type="arc"
         sodipodi:cx="131.30371"
         sodipodi:cy="66.112305"
         sodipodi:rx="17.402792"
         sodipodi:ry="17.302776"
         sodipodi:start="4.2049014"
         sodipodi:end="4.1898316"
         sodipodi:open="true"
         sodipodi:arc-type="arc"
         d="m 122.84625,50.990227 a 17.402792,17.302776 0 0 1 23.63498,6.656311 17.402792,17.302776 0 0 1 -6.6057,23.524055 17.402792,17.302776 0 0 1 -23.68475,-6.479059 17.402792,17.302776 0 0 1 6.42723,-23.572875" /><g
         id="g392"
         transform="matrix(1.1495193,-0.02856673,0.02237366,1.4677085,-18.019294,-52.714399)"
         style="fill:#ffffff;fill-opacity:1"><path
           id="path382"
           style="opacity:1;fill:#ffffff;fill-opacity:1;stroke-width:2.18567;stroke-linecap:round;stroke-miterlimit:0.2;paint-order:stroke markers fill"
           d="m 125.22692,76.218758 c 0.52949,2.13013 1.30432,12.828279 -0.0344,12.891121 -1.42631,0.06695 -0.60335,-10.708006 0.0344,-12.891121 z"
           sodipodi:nodetypes="csc" /><path
           style="opacity:1;fill:#ffffff;fill-opacity:1;stroke:none;stroke-width:2.731;stroke-linecap:round;stroke-linejoin:miter;stroke-miterlimit:0.2;stroke-dasharray:none;stroke-opacity:1;paint-order:stroke markers fill"
           id="path384"
           sodipodi:type="arc"
           sodipodi:cx="128.69635"
           sodipodi:cy="87.041931"
           sodipodi:rx="4.1896143"
           sodipodi:ry="4.270184"
           sodipodi:start="0"
           sodipodi:end="3.1415927"
           sodipodi:arc-type="slice"
           d="m 132.88596,87.041931 a 4.1896143,4.270184 0 0 1 -2.0948,3.698088 4.1896143,4.270184 0 0 1 -4.18962,0 4.1896143,4.270184 0 0 1 -2.0948,-3.698088 h 4.18961 z" /><path
           id="path386"
           style="opacity:1;fill:#ffffff;fill-opacity:1;stroke-width:2.18567;stroke-linecap:round;stroke-miterlimit:0.2;paint-order:stroke markers fill"
           d="m 132.26332,76.218758 c 0.52949,2.13013 1.30432,12.828279 -0.0344,12.891121 -1.42631,0.06695 -0.60335,-10.708006 0.0344,-12.891121 z"
           sodipodi:nodetypes="csc" /><path
           id="path388"
           style="opacity:1;fill:#ffffff;fill-opacity:1;stroke-width:2.18567;stroke-linecap:round;stroke-miterlimit:0.2;paint-order:stroke markers fill"
           d="m 127.42915,76.218758 c 0.52949,2.13013 1.30432,12.828279 -0.0344,12.891121 -1.42631,0.06695 -0.60335,-10.708006 0.0344,-12.891121 z"
           sodipodi:nodetypes="csc" /><path
           id="path390"
           style="opacity:1;fill:#ffffff;fill-opacity:1;stroke-width:2.18567;stroke-linecap:round;stroke-miterlimit:0.2;paint-order:stroke markers fill"
           d="m 129.84624,76.218758 c 0.52949,2.13013 1.30432,12.828279 -0.0344,12.891121 -1.42631,0.06695 -0.60335,-10.708006 0.0344,-12.891121 z"
           sodipodi:nodetypes="csc" /></g><path
         style="fill:#ffffff;fill-opacity:1;stroke:none;stroke-width:0.71107;stroke-linecap:round;stroke-miterlimit:0.2;stroke-dasharray:none;stroke-opacity:1;paint-order:stroke markers fill"
         d="m 131.67864,55.572835 c 1.60454,-0.58581 11.95814,-0.45978 10.83216,2.46042 -1.85648,4.81473 -12.92326,5.95464 -17.37394,8.51969 -7.24124,4.17333 2.84613,7.45471 7.60376,7.45471 0.30004,0 -1.32957,0.72588 -1.61421,0.80791 -1.0274,0.29605 -4.00586,0.13618 -5.30989,0.40394 -1.24865,0.2564 -0.2699,3.16466 -2.46378,4.112949 -0.035,0.0151 -0.55223,0.34749 -0.55223,0.29378 0,-4.243379 -1.2739,-5.103249 -2.76113,-8.960349 -2.79837,-7.25749 3.18251,-14.1792 11.63926,-15.09305 z"
         id="path512"
         sodipodi:nodetypes="cssssscssc" /><path
         style="fill:#ffffff;fill-opacity:1;stroke:none;stroke-width:0.71107;stroke-linecap:round;stroke-miterlimit:0.2;stroke-dasharray:none;stroke-opacity:1;paint-order:stroke markers fill"
         d="m 129.60717,56.162495 c -0.0112,-0.0624 -2.07698,-0.87387 -2.86661,-1.10141 -2.27962,0.35272 -6.11577,6.99013 -4.50469,6.29376 1.61681,-0.69886 2.42087,-3.01321 4.27718,-3.8156 1.05231,-0.45485 2.35922,-0.61436 3.09412,-1.37675 z"
         id="path514"
         sodipodi:nodetypes="ccssc" /><path
         style="fill:#ffffff;fill-opacity:1;stroke:none;stroke-width:0.71107;stroke-linecap:round;stroke-miterlimit:0.2;stroke-dasharray:none;stroke-opacity:1;paint-order:stroke markers fill"
         d="m 130.89277,63.631024 c -2.92902,4.83002 -0.7737,2.87153 -3.82216,2.87153 -2.61431,0 -0.17263,-1.14218 0.91004,-2.00614"
         id="path7110-5" /><path
         id="path994"
         style="opacity:1;fill:#ffffff;fill-opacity:1;stroke-width:0.732957;stroke-miterlimit:0.2;paint-order:stroke markers fill"
         d="m 131.89833,73.737995 c -0.80742,0.01164 -1.44139,1.12534 -1.42162,2.497 l 0.10387,7.2192 a 17.402792,17.302776 0 0 0 2.91352,-0.12661 l -0.10283,-7.13444 c -0.0198,-1.37167 -0.68552,-2.46679 -1.49294,-2.45515 z" /></g></g></svg>
